<?xml version="1.0" standalone="no"?>
<!DOCTYPE svg PUBLIC "-//W3C//DTD SVG 20010904//EN"
 "http://www.w3.org/TR/2001/REC-SVG-20010904/DTD/svg10.dtd">
<svg version="1.0" xmlns="http://www.w3.org/2000/svg"
 width="512.000000pt" height="512.000000pt" viewBox="0 0 512.000000 512.000000"
 preserveAspectRatio="xMidYMid meet">

<g transform="translate(0.000000,512.000000) scale(0.100000,-0.100000)"
fill="#000000" stroke="none">
<path d="M3665 5095 c-118 -21 -195 -46 -210 -69 -34 -47 -4 -116 51 -116 14
0 62 10 107 22 107 29 344 32 451 5 349 -87 618 -347 718 -693 20 -69 23 -100
22 -254 0 -161 -2 -182 -27 -263 -60 -195 -170 -363 -315 -480 -166 -133 -324
-197 -542 -218 -63 -6 -125 -17 -137 -25 -12 -8 -38 -39 -58 -69 -20 -32 -59
-73 -94 -99 -57 -41 -171 -95 -234 -110 l-28 -7 26 50 c31 61 66 188 68 245 3
62 -18 92 -94 137 -173 100 -305 242 -389 414 -62 128 -91 239 -98 382 -13
299 95 558 323 770 84 78 95 110 52 151 -34 32 -68 27 -124 -16 -169 -135
-310 -355 -371 -580 -23 -88 -26 -114 -26 -277 0 -163 3 -189 26 -277 74 -273
233 -499 461 -653 48 -32 87 -64 87 -71 0 -37 -54 -176 -87 -223 -58 -82 -66
-99 -59 -135 4 -18 20 -45 36 -61 38 -36 89 -36 213 0 208 60 361 154 428 262
17 26 28 33 67 38 146 18 206 30 286 56 389 129 667 445 751 853 20 101 21
305 0 412 -41 218 -136 402 -290 562 -177 186 -387 298 -629 337 -109 18 -265
18 -361 0z"/>
<path d="M1411 4619 c-454 -56 -820 -375 -938 -817 -25 -92 -27 -112 -30 -392
-3 -265 -6 -300 -23 -342 -26 -60 -25 -137 0 -196 19 -44 20 -65 18 -327 l-3
-280 -100 -5 c-177 -9 -179 -13 -183 -339 -2 -134 -1 -259 3 -278 15 -80 105
-101 140 -32 12 22 15 76 15 264 l0 235 1230 0 1230 0 0 -790 0 -790 -1230 0
-1230 0 0 393 c0 294 -3 398 -13 417 -15 30 -54 45 -91 36 -53 -13 -56 -37
-56 -460 0 -414 2 -396 -51 -396 -11 0 -36 -15 -57 -34 l-37 -34 -3 -170 c-4
-191 3 -217 61 -252 32 -20 70 -20 2497 -20 2455 0 2465 0 2498 20 53 32 62
69 62 242 0 168 -8 197 -67 235 -26 17 -85 18 -1080 21 l-1053 2 0 811 c0 867
1 849 -50 894 -18 17 -41 21 -128 25 l-107 5 -3 283 c-2 270 -1 284 19 324 28
55 28 140 0 196 -20 39 -21 57 -21 313 0 232 -3 285 -20 369 -74 362 -340 675
-685 805 -152 58 -360 84 -514 64z m221 -1202 c152 -102 348 -171 518 -183 41
-3 86 -7 99 -10 l23 -5 -5 -247 c-4 -215 -8 -257 -27 -322 -33 -116 -94 -222
-175 -308 l-73 -77 -450 -3 -451 -4 -52 49 c-101 94 -179 228 -213 364 -13 51
-16 118 -16 312 l0 247 59 0 c185 0 440 87 597 205 33 24 62 44 66 44 3 1 48
-27 100 -62z m-982 -447 c0 -79 0 -80 -25 -80 -36 0 -75 42 -75 80 0 38 39 80
75 80 25 0 25 -1 25 -80z m1847 58 c33 -31 32 -90 -3 -117 -15 -12 -37 -21
-50 -21 -23 0 -24 3 -24 80 l0 80 27 0 c15 0 37 -10 50 -22z m2353 -2763 l0
-105 -2350 0 -2350 0 0 105 0 105 2350 0 2350 0 0 -105z"/>
<path d="M1199 3111 c-21 -17 -24 -29 -27 -108 -4 -83 -2 -92 20 -118 29 -34
77 -38 108 -10 17 16 20 31 20 116 0 88 -2 100 -22 119 -27 25 -69 26 -99 1z"/>
<path d="M1776 3109 c-25 -19 -26 -25 -26 -110 0 -102 7 -121 49 -138 23 -10
34 -10 53 0 41 22 47 40 48 132 0 80 -2 90 -25 112 -30 30 -64 32 -99 4z"/>
<path d="M1385 2575 c-45 -44 -22 -106 53 -144 57 -28 102 -33 158 -16 95 28
140 101 95 156 -23 28 -81 31 -109 6 -25 -23 -64 -21 -95 3 -34 27 -73 25
-102 -5z"/>
<path d="M3299 4411 c-34 -35 -36 -59 -8 -95 l20 -26 534 0 534 0 20 26 c34
43 26 86 -20 109 -23 13 -110 15 -539 15 l-512 0 -29 -29z"/>
<path d="M3303 4105 c-11 -8 -24 -26 -27 -40 -7 -29 15 -79 39 -89 9 -3 250
-6 536 -6 l520 0 24 25 c14 13 25 36 25 50 0 14 -11 37 -25 50 l-24 25 -523 0
c-446 0 -527 -2 -545 -15z"/>
<path d="M3324 3800 c-26 -10 -54 -48 -54 -71 0 -9 9 -28 21 -43 l20 -26 335
0 c321 0 335 1 354 20 35 35 25 92 -21 115 -23 12 -84 15 -331 14 -167 0 -313
-4 -324 -9z"/>
<path d="M1387 1606 c-251 -94 -279 -422 -46 -551 48 -27 63 -30 139 -30 72 0
92 4 135 27 102 54 158 141 163 255 4 61 0 80 -22 130 -52 113 -140 173 -261
180 -44 2 -84 -2 -108 -11z m163 -156 c45 -23 80 -80 80 -130 0 -73 -74 -150
-144 -150 -125 0 -198 147 -119 241 50 59 116 73 183 39z"/>
</g>
</svg>
